<svg id="haystacks" xmlns="http://www.w3.org/2000/svg" viewBox="0 0 6231.88 1401.19">
  <defs>
    <style>
      .cls-1 {
        fill: #fff;
      }
    </style>
  </defs>
  <title>haystacks-logo</title>
  <g>
    <g>
      <path class="cls-1" d="M864.5,1289.5c-278.35,0-504-48.35-504-108v215h0c0,.33,0,.67,0,1,0,59.65,225.65,108,504,108s504-48.35,504-108c0-.33,0-.67,0-1h0v-215C1368.5,1241.15,1142.85,1289.5,864.5,1289.5Z" transform="translate(-300.5 -164.46)"/>
      <path d="M864.5,1229.5c-71.68,0-143.42-3.06-214.75-10.27q-26.67-2.68-53.22-6.24l16,2.14c-50.86-6.88-102-15.77-151-31.43-10.36-3.31-20.61-7-30.65-11.2l14.34,6c-12.7-5.38-25.27-11.58-36.24-20l12.15,9.38a64.93,64.93,0,0,1-11.39-11.08l9.38,12.15a37.36,37.36,0,0,1-4.64-7.75l6,14.33a27.92,27.92,0,0,1-1.89-6.65l2.14,15.95a26.84,26.84,0,0,1-.24-3.36,62.16,62.16,0,0,0-17.57-42.43c-10.41-10.4-27.48-18.24-42.43-17.57-15.52.7-31.61,5.79-42.43,17.57s-17.57,26.17-17.57,42.43v215c0,32.43,27.49,60,60,60h0l-60-60a84.44,84.44,0,0,0,13.75,47.43c10.86,16,22.63,26.49,38.6,37.49a170.16,170.16,0,0,0,28.86,15.51,500.13,500.13,0,0,0,52.51,19.94c34.57,10.68,70.17,18,105.84,23.9,49.32,8.19,99.1,14,148.94,18a2238.41,2238.41,0,0,0,315.48,2.51c51.78-3.2,103.33-8.61,154.69-15.93,38-5.42,75.92-12.23,113-22,31.2-8.25,62.69-18.79,91.15-34.16a168,168,0,0,0,34.88-25.07c12.65-11.88,21.21-26.36,26.73-42.67a72,72,0,0,0,3.46-24.9l-60,60h0c32.43,0,60-27.49,60-60v-215a61.92,61.92,0,0,0-17.57-42.43c-10.41-10.4-27.48-18.24-42.43-17.57-15.52.7-31.61,5.79-42.43,17.57s-17.42,26.12-17.57,42.43a26.84,26.84,0,0,1-.24,3.36l2.14-15.95a27.92,27.92,0,0,1-1.89,6.65l6-14.33a37.36,37.36,0,0,1-4.64,7.75l9.38-12.15a64.93,64.93,0,0,1-11.39,11.08l12.15-9.38c-11,8.44-23.54,14.64-36.24,20l14.34-6c-42.13,17.69-87.7,27.31-132.55,35.1q-24.45,4.25-49.08,7.53l16-2.14c-67.62,9.07-135.82,13.8-204,15.65q-32,.87-64,.86a62,62,0,0,0-42.43,17.57c-10.4,10.41-18.24,27.48-17.57,42.43.7,15.52,5.79,31.61,17.57,42.43s26.18,17.58,42.43,17.57c103.64,0,207.28-6.6,309.76-22.38,36.76-5.66,73.44-12.71,109.24-22.91a427.59,427.59,0,0,0,41.43-13.89c15.27-6.11,30.87-12.37,45-20.91,31.74-19.19,58.21-48.86,58.56-87.91h-120v215l60-60h0c-31.73,0-61,27.49-60,60a26.43,26.43,0,0,1-.21,4.36l2.14-15.95a27.92,27.92,0,0,1-1.89,6.65l6-14.33a37.36,37.36,0,0,1-4.64,7.75l9.38-12.15a64.93,64.93,0,0,1-11.39,11.08l12.15-9.38c-11,8.44-23.54,14.64-36.24,20l14.34-6c-42.13,17.69-87.7,27.31-132.55,35.1q-24.45,4.25-49.08,7.53l16-2.14c-67.62,9.07-135.82,13.8-204,15.65-73.94,2-148,.67-221.83-4.55-36.8-2.59-73.53-6.2-110.09-11.1l16,2.14c-50.86-6.88-102-15.77-151-31.43-10.36-3.31-20.61-7-30.65-11.2l14.34,6c-12.7-5.38-25.27-11.58-36.24-20l12.15,9.38a64.93,64.93,0,0,1-11.39-11.08l9.38,12.15a37.36,37.36,0,0,1-4.64-7.75l6,14.33a27.92,27.92,0,0,1-1.89-6.65l2.14,15.95a26.43,26.43,0,0,1-.21-4.36c.43-14.45-6.85-32.58-17.57-42.43-11.74-10.77-26.17-17.57-42.43-17.57h0l60,60v-215h-120a78.55,78.55,0,0,0,3.63,24.31c2.6,7.67,5.77,15.76,10.44,22.52,11,15.88,22.57,26.32,38.58,37.29a173.48,173.48,0,0,0,29,15.49A505.94,505.94,0,0,0,434.77,1301c34.41,10.59,69.83,17.85,105.32,23.74,49.32,8.19,99.1,14,148.94,18,58.36,4.65,116.92,6.71,175.47,6.73a61.92,61.92,0,0,0,42.43-17.57c10.4-10.41,18.24-27.48,17.57-42.43-.7-15.52-5.79-31.61-17.57-42.43S880.76,1229.51,864.5,1229.5Z" transform="translate(-300.5 -164.46)"/>
    </g>
    <g>
      <path class="cls-1" d="M864.5,990.5c-278.35,0-504-48.35-504-108v215h0c0,.33,0,.67,0,1,0,59.65,225.65,108,504,108s504-48.35,504-108c0-.33,0-.67,0-1h0v-215C1368.5,942.15,1142.85,990.5,864.5,990.5Z" transform="translate(-300.5 -164.46)"/>
      <path d="M864.5,930.5c-71.68,0-143.42-3.06-214.75-10.27q-26.67-2.68-53.22-6.24l16,2.14c-50.86-6.88-102-15.77-151-31.43-10.36-3.31-20.61-7-30.65-11.2l14.34,6c-12.7-5.38-25.27-11.58-36.24-20l12.15,9.38a64.93,64.93,0,0,1-11.39-11.08L419.09,870a37.36,37.36,0,0,1-4.64-7.75l6,14.33a27.92,27.92,0,0,1-1.89-6.65l2.14,16a26.84,26.84,0,0,1-.24-3.36,62.16,62.16,0,0,0-17.57-42.43c-10.41-10.4-27.48-18.24-42.43-17.57-15.52.7-31.61,5.79-42.43,17.57S300.5,866.24,300.5,882.5v215c0,32.43,27.49,60,60,60h0l-60-60a84.44,84.44,0,0,0,13.75,47.43c10.86,16,22.63,26.49,38.6,37.49a170.16,170.16,0,0,0,28.86,15.51,500.13,500.13,0,0,0,52.51,19.94c34.57,10.68,70.17,18,105.84,23.9,49.32,8.19,99.1,14,148.94,18a2238.41,2238.41,0,0,0,315.48,2.51c51.78-3.2,103.33-8.61,154.69-15.93,38-5.42,75.92-12.23,113-22,31.2-8.25,62.69-18.79,91.15-34.16a168,168,0,0,0,34.88-25.07c12.65-11.88,21.21-26.36,26.73-42.67a72,72,0,0,0,3.46-24.9l-60,60h0c32.43,0,60-27.49,60-60v-215a61.92,61.92,0,0,0-17.57-42.43c-10.41-10.4-27.48-18.24-42.43-17.57-15.52.7-31.61,5.79-42.43,17.57s-17.42,26.12-17.57,42.43a26.84,26.84,0,0,1-.24,3.36l2.14-16a27.92,27.92,0,0,1-1.89,6.65l6-14.33a37.36,37.36,0,0,1-4.64,7.75l9.38-12.15a64.93,64.93,0,0,1-11.39,11.08l12.15-9.38c-11,8.44-23.54,14.64-36.24,20l14.34-6c-42.13,17.69-87.7,27.31-132.55,35.1q-24.45,4.24-49.08,7.53l16-2.14c-67.62,9.07-135.82,13.8-204,15.65q-32,.87-64,.86a62,62,0,0,0-42.43,17.57c-10.4,10.41-18.24,27.48-17.57,42.43.7,15.52,5.79,31.61,17.57,42.43s26.18,17.58,42.43,17.57c103.64,0,207.28-6.6,309.76-22.38,36.76-5.66,73.44-12.71,109.24-22.91a427.59,427.59,0,0,0,41.43-13.89c15.27-6.11,30.87-12.37,45-20.91,31.74-19.19,58.21-48.86,58.56-87.91h-120v215l60-60h0c-31.73,0-61,27.49-60,60a26.43,26.43,0,0,1-.21,4.36l2.14-15.95a27.92,27.92,0,0,1-1.89,6.65l6-14.33a37.36,37.36,0,0,1-4.64,7.75l9.38-12.15a64.93,64.93,0,0,1-11.39,11.08l12.15-9.38c-11,8.44-23.54,14.64-36.24,20l14.34-6c-42.13,17.69-87.7,27.31-132.55,35.1q-24.45,4.25-49.08,7.53l16-2.14c-67.62,9.07-135.82,13.8-204,15.65-73.94,2-148,.67-221.83-4.55-36.8-2.59-73.53-6.2-110.09-11.1l16,2.14c-50.86-6.88-102-15.77-151-31.43-10.36-3.31-20.61-7-30.65-11.2l14.34,6c-12.7-5.38-25.27-11.58-36.24-20l12.15,9.38a64.93,64.93,0,0,1-11.39-11.08l9.38,12.15a37.36,37.36,0,0,1-4.64-7.75l6,14.33a27.92,27.92,0,0,1-1.89-6.65l2.14,15.95a26.43,26.43,0,0,1-.21-4.36c.43-14.45-6.85-32.58-17.57-42.43-11.74-10.77-26.17-17.57-42.43-17.57h0l60,60v-215h-120a78.55,78.55,0,0,0,3.63,24.31c2.6,7.67,5.77,15.76,10.44,22.52,11,15.88,22.57,26.32,38.58,37.29a173.48,173.48,0,0,0,29,15.49A505.94,505.94,0,0,0,434.77,1002c34.41,10.59,69.83,17.85,105.32,23.74,49.32,8.19,99.1,14,148.94,18,58.36,4.65,116.92,6.71,175.47,6.73a61.92,61.92,0,0,0,42.43-17.57c10.4-10.41,18.24-27.48,17.57-42.43-.7-15.52-5.79-31.61-17.57-42.43S880.76,930.51,864.5,930.5Z" transform="translate(-300.5 -164.46)"/>
    </g>
    <g>
      <path class="cls-1" d="M864.5,908.5c278.35,0,504-48.35,504-108,0-.33,0-.67,0-1h-.85L864.5,224.5l-503.12,575h-.85c0,.33,0,.67,0,1C360.5,860.15,586.15,908.5,864.5,908.5Z" transform="translate(-300.5 -164.46)"/>
      <path d="M864.5,968.5c103.64,0,207.28-6.6,309.76-22.38,36.76-5.66,73.44-12.71,109.24-22.91a427.59,427.59,0,0,0,41.43-13.89c15.27-6.11,30.87-12.37,45-20.91,12.34-7.46,24.86-16.28,34-27.52,10.22-12.5,15-20,20.57-35.25a71.29,71.29,0,0,0,3.91-26.14c-.44-15-6.22-32-17.57-42.43-11.74-10.77-26.17-17.57-42.43-17.57h-.85l42.43,17.57L1396.6,741.7,1360,699.87,1305.86,638l-66-75.49-72.36-82.7-73-83.47L1026.3,318.5l-57.55-65.77-41.39-47.3c-6.53-7.46-13-15-19.6-22.4-.28-.31-.55-.64-.83-1a45,45,0,0,0-19.31-12.4,45.18,45.18,0,0,0-23.12-5.17c-15.29.68-32,5.65-42.43,17.57l-13.45,15.37L772,239.28l-54.14,61.87-66,75.49-72.36,82.69-73,83.48-68.11,77.84-57.55,65.77-41.39,47.3c-6.53,7.46-13.15,14.85-19.59,22.4l-.84,1,42.43-17.57h-.85c-14.72,0-32.29,6.54-42.43,17.57-11,11.94-17.09,26-17.57,42.43-.47,16,4.75,34.23,13.75,47.43,10.88,15.94,22.42,26.27,38.32,37.3a168,168,0,0,0,28.73,15.52,498.43,498.43,0,0,0,52.4,20c34.27,10.62,69.56,17.91,104.92,23.82,49.21,8.24,98.9,14.1,148.63,18.1,59,4.75,118.09,6.85,177.22,6.87a61.92,61.92,0,0,0,42.43-17.57c10.4-10.41,18.24-27.48,17.57-42.43-.7-15.52-5.79-31.61-17.57-42.43s-26.17-17.56-42.43-17.57c-71.68,0-143.42-3.06-214.75-10.27q-26.67-2.68-53.22-6.24l16,2.14c-50.86-6.88-102-15.77-151-31.43-10.36-3.31-20.61-7-30.65-11.2l14.34,6c-12.7-5.38-25.27-11.58-36.24-20l12.15,9.38a64.93,64.93,0,0,1-11.39-11.08L419.09,788a37.36,37.36,0,0,1-4.64-7.75l6,14.33a27.92,27.92,0,0,1-1.89-6.65l2.14,16a26.43,26.43,0,0,1-.21-4.36l-60,60a61.79,61.79,0,0,0,46.22-20.94l9.47-10.82,36-41.12L506.07,725l66.08-75.52,72.6-83,73.41-83.9,68.53-78.32,58-66.24,41.56-47.49c6.62-7.58,13.34-15.08,19.88-22.73.27-.32.56-.63.84-.95H822.07l13.57,15.5,36.9,42.18,54.55,62.33,66.49,76,72.76,83.14,73.31,83.79,68.18,77.92,57.35,65.55,40.7,46.51c6.25,7.14,12.31,14.48,18.76,21.44.16.17.3.36.46.53a.81.81,0,0,1,.09.1l12.15,9.39a63.75,63.75,0,0,0,31.13,8.19l-60-60a26.43,26.43,0,0,1-.21,4.36l2.14-16a27.92,27.92,0,0,1-1.89,6.65l6-14.33a37.36,37.36,0,0,1-4.64,7.75l9.38-12.15a64.93,64.93,0,0,1-11.39,11.08l12.15-9.38c-11,8.44-23.54,14.64-36.24,20l14.34-6c-42.13,17.69-87.7,27.31-132.55,35.1q-24.45,4.24-49.08,7.53l16-2.14c-67.62,9.07-135.82,13.8-204,15.65q-32,.87-64,.86a62,62,0,0,0-42.43,17.57c-10.4,10.41-18.24,27.48-17.57,42.43.7,15.52,5.79,31.61,17.57,42.43S848.25,968.51,864.5,968.5Z" transform="translate(-300.5 -164.46)"/>
    </g>
  </g>
  <g>
    <g>
      <path class="cls-1" d="M864.5,1289.5c-278.35,0-504-48.35-504-108v215h0c0,.33,0,.67,0,1,0,59.65,225.65,108,504,108s504-48.35,504-108c0-.33,0-.67,0-1h0v-215C1368.5,1241.15,1142.85,1289.5,864.5,1289.5Z" transform="translate(-300.5 -164.46)"/>
      <path class="cls-1" d="M890.5,1274.53c-97.64,0-195.73-5.25-292.32-20-36.13-5.52-72.18-12.39-107.41-22.2-25.2-7-50.83-15.31-73.53-28.56-13.35-7.8-30.59-19.94-30.74-37.23,0,.2-8.8,4.81-7.72,4.2-6.17,3.46-12.3,7-18.43,10.51S348.1,1188.3,342,1191.9c-1,.61-7.51,3.68-7.51,4.57v209.34c0,5.83-.17,11.38,2.23,16.88,4.27,9.78,13.18,17.08,21.84,22.85,13.41,9,28.45,15.41,43.51,21,45.1,16.69,93,26,140.39,33.36,64.36,10,129.41,15.54,194.46,18.39,73.5,3.22,147.2,3,220.68-.84,63.85-3.32,127.71-9.24,190.8-19.79,45.61-7.63,91.94-17.1,135-34.39,7.68-3.09,15.25-6.48,22.58-10.32,21.18-11.07,42.35-23,62.38-36,9.11-5.92,18.59-13.15,23.42-23.18a26.42,26.42,0,0,0,2.67-12.25l-52,29.94h0c1.55,0,7.2-3.9,7.72-4.2,6.17-3.46,12.3-7,18.43-10.51s12.25-7.06,18.34-10.66c1-.61,7.51-3.68,7.51-4.57v-215c0,.21-8.8,4.8-7.72,4.2-6.17,3.46-12.3,7-18.43,10.51s-12.25,7.06-18.34,10.66c-1,.61-7.5,3.66-7.51,4.57-.13,14.45-12.5,25.22-23.5,32.69l.89-.6c-1.06.71-2.13,1.4-3.2,2.09l-1.53.94c13-8.29,29.27-17.64,43-24.76-2.62,1.36-5.24,2.73-7.9,4l1-.46c-41.36,19.81-87.61,29.84-132.44,38.09-65.12,12-131.24,18.57-197.31,22.37q-65.41,3.75-131,3.68c-1.55,0-7.2,3.9-7.72,4.2-6.17,3.46-12.3,7-18.43,10.51S852.1,1296.3,846,1299.9c-1.64,1-5.8,4.57-7.51,4.57,99.62,0,199.76-5.41,298.25-20.93,36.75-5.79,73.43-13,109.16-23.47a399.58,399.58,0,0,0,41.35-14.39c24.12-10.08,46.53-24.15,69-37.36,15.11-8.89,38.06-21.35,38.25-41.79l-52,29.94v215l52-29.94h0c-1.55,0-7.2,3.9-7.72,4.2-6.17,3.46-12.3,7-18.43,10.51s-12.25,7.06-18.34,10.66c-1,.59-7.53,3.73-7.51,4.57.44,14.9-12.18,26-23.47,33.69l.89-.6c-1.06.71-2.13,1.4-3.2,2.09l-1.53.94c13-8.29,29.27-17.64,43-24.76-2.62,1.36-5.24,2.73-7.9,4l1-.46c-33.83,16.21-71,25.5-107.57,33.19-51.74,10.89-104.33,17.69-157,22.46-63.25,5.73-126.78,8.32-190.28,8.48-64.28.16-128.6-2.17-192.65-7.65-53.35-4.56-106.66-11.17-159.16-21.79-37.37-7.56-75.34-16.7-110.18-32.53-11.5-5.23-23-11.3-32.63-19.52-6.45-5.49-12.57-12.39-14.6-20.84-1.11-4.63-.68-9.66-.68-14.42V1166.53l-52,29.94c.14,14.89,13.25,26,24.65,33.45,20.77,13.69,45.08,22.08,68.74,29.19,76.54,23,157.46,32.53,236.88,38.77,57.79,4.55,115.77,6.57,173.73,6.59,1.55,0,7.2-3.91,7.72-4.2,6.17-3.46,12.3-7,18.43-10.51s12.25-7.06,18.34-10.66C884.62,1278.13,888.79,1274.53,890.5,1274.53Z" transform="translate(-300.5 -164.46)"/>
    </g>
    <g>
      <path class="cls-1" d="M864.5,990.5c-278.35,0-504-48.35-504-108v215h0c0,.33,0,.67,0,1,0,59.65,225.65,108,504,108s504-48.35,504-108c0-.33,0-.67,0-1h0v-215C1368.5,942.15,1142.85,990.5,864.5,990.5Z" transform="translate(-300.5 -164.46)"/>
      <path class="cls-1" d="M837.64,977.14c-70.56,0-141.18-3-211.41-9.93-56.21-5.57-112.51-13.43-167.44-26.84-22.84-5.57-45.54-12.13-67.36-21l1,.41c-2-.81-3.92-1.62-5.87-2.47-1.08-.46-2.15-.94-3.22-1.42l-1.76-.79c.86.4.8.37-.16-.08q60.94,30.76,39.81,19.79c3,1.42.21.11-.43-.25-1.64-.92-3.27-1.84-4.89-2.8l.92.55c-12.95-7.78-29.32-19.65-29.47-36.48,0-.51-8.69-4.57-7.77-4.1-6.3-3.22-12.62-6.38-19-9.53s-12.66-6.29-19-9.37c-.9-.43-8-3.29-8-3.72v215c0,.5,8.7,4.58,7.77,4.1,6.3,3.22,12.62,6.38,19,9.53s12.66,6.29,19,9.37c2,1,5.75,3.72,8,3.72h0l-53.72-26.72c-.29,9.62,5.12,17.86,11.78,24.35a89,89,0,0,0,14.3,11c14.33,9.15,30.07,16.24,45.25,23.77,22.74,11.27,45.24,21.64,69.46,29.26a687.08,687.08,0,0,0,68.35,17.3c59,12.12,119.13,19.15,179.2,23.74,72.5,5.54,145.31,7.25,218,5.75,68.29-1.4,136.61-5.63,204.41-14.08,52.29-6.52,104.81-15.16,155.42-30.14,17.93-5.31,35.75-11.44,52.6-19.6,11.8-5.71,23.78-12.49,32.87-22.11,6-6.36,10-13.81,10-22.63,0-6.8,0-13.6,0-20.4V895.86c0-.5-8.7-4.58-7.77-4.1-6.3-3.22-12.62-6.38-19-9.53s-12.66-6.29-19-9.37c-.89-.43-8-3.3-8-3.72-.13,14.88-13.25,25.94-24.64,33.45-20.78,13.68-45.08,22.08-68.74,29.19-76.55,23-157.47,32.53-236.89,38.77-57.79,4.55-115.77,6.57-173.73,6.59,1.29,0,7.5,4,7.77,4.1,6.3,3.22,12.62,6.38,19,9.53s12.66,6.29,19,9.37c2,1,5.75,3.72,8,3.72,97.64,0,195.73-5.25,292.32-20,36.13-5.52,72.18-12.38,107.41-22.2,25.2-7,50.83-15.31,73.53-28.56,13.35-7.8,30.59-19.93,30.74-37.23l-53.72-26.72v213.63c0,16.63-12.34,27.87-25.52,36.39-27,17.43-59.35,26.86-90.15,34.83-46.46,12-94,19.62-141.66,25.35-59.69,7.19-119.77,11.15-179.86,12.86q-97.05,2.74-194.13-2.54c-56.44-3.14-112.84-8.4-168.71-17.1-42.81-6.67-85.75-15.08-126.95-28.67-7.83-2.59-15.59-5.39-23.23-8.49l1,.41c-2-.81-3.92-1.62-5.87-2.47-1.08-.46-2.15-.94-3.22-1.42l-1.76-.79c.86.4.8.37-.16-.08q60.94,30.77,39.81,19.79c3,1.42.21.11-.43-.25-1.64-.92-3.27-1.84-4.89-2.8l.92.55c-13.23-7.95-29.95-20.17-29.44-37.48,0-.48-8.73-4.59-7.77-4.1-6.3-3.22-12.62-6.38-19-9.53s-12.66-6.29-19-9.37c-2.05-1-5.75-3.72-8-3.72h0l53.72,26.72v-215l-53.72-26.72c.14,15.36,14,26.64,25.81,34.21,5.38,3.46,11,6.49,16.68,9.42,19.18,9.91,38.49,19.77,58.15,28.7a348.49,348.49,0,0,0,38.13,14.45c34.16,10.92,69.43,18.35,104.74,24.39,44.79,7.66,90,12.86,135.25,16.54,59.52,4.85,119.25,7,179,7-1.29,0-7.49-4-7.77-4.1-6.3-3.22-12.62-6.38-19-9.53s-12.66-6.29-19-9.37C843.55,979.87,839.86,977.14,837.64,977.14Z" transform="translate(-300.5 -164.46)"/>
    </g>
    <g>
      <path class="cls-1" d="M864.5,908.5c278.35,0,504-48.35,504-108,0-.33,0-.67,0-1h-.85L864.5,224.5l-503.12,575h-.85c0,.33,0,.67,0,1C360.5,860.15,586.15,908.5,864.5,908.5Z" transform="translate(-300.5 -164.46)"/>
      <path class="cls-1" d="M838.54,923.54c91.56,0,183.41-4.74,274.15-17.36,35.56-4.95,71-11.13,105.9-19.71,26.13-6.42,52.31-14,76.82-25.27,5.46-2.5,10.79-5.22,16-8.12,18.26-10.08,36.47-20.47,54.19-31.47,6.95-4.32,13.76-9.12,19.32-15.18,4-4.41,7.49-9.61,8.86-15.51a24.33,24.33,0,0,0,.58-4,8,8,0,0,0,0-2.48c-.09-.16-.73.14-.86,0s-.4-.46-.59-.68q-16-18.25-32-36.57L1290.77,667,1197.7,560.59,1096.12,444.5l-94.8-108.34-73-83.47L892.07,211.3l-1.61-1.84c-.8-.91-24,13.57-26.11,14.78-6.12,3.55-12.23,7.09-18.31,10.71-2.22,1.32-5.82,2.66-7.5,4.59l-13.45,15.37-36.6,41.83-54.14,61.87L668.29,434.1l-72.35,82.7-73,83.47-68.11,77.84-57.55,65.77-41.39,47.3c-6.53,7.47-13.12,14.89-19.6,22.4l-.83,1,51.91-30.08h-.84c-1.54,0-7.2,3.93-7.71,4.22q-9.24,5.22-18.4,10.56c-6.12,3.55-12.24,7.09-18.31,10.71-1.06.62-7.47,3.64-7.5,4.59-.45,15.1,12.55,26.4,24,34.07,20.57,13.72,44.75,22.13,68.25,29.25,34.23,10.36,69.41,17.52,104.67,23.33,44.15,7.28,88.68,12.25,133.28,15.76,57.79,4.55,115.77,6.56,173.73,6.59,1.54,0,7.2-3.93,7.71-4.22q9.24-5.22,18.4-10.56c6.12-3.55,12.23-7.09,18.31-10.71,1.63-1,5.8-4.59,7.5-4.59-97.64,0-195.73-5.25-292.32-20-36.51-5.58-72.94-12.52-108.52-22.51-25.05-7-50.54-15.33-73.06-28.62C403.13,814.38,386,802,386.49,784.46l-51.92,30.08a6.32,6.32,0,0,0,3.14-1.2c5.7-3.07,11.3-6.36,16.91-9.59q10-5.78,20-11.62c3.89-2.28,9.24-4.59,12.72-7.67a2.85,2.85,0,0,0,.23-.26,26.37,26.37,0,0,0,1.78-2l8.67-9.91,34.87-39.85,53.19-60.79L552.23,596l73.07-83.5,73.81-84.36,69.38-79.29,58.78-67.18,42.18-48.21c6.72-7.67,13.48-15.3,20.14-23l.87-1-51.92,30.08,15.38,17.57,41.53,47.46,61,69.76,73.09,83.53L1108,547.5l76.87,87.85,68.38,78.15,53.14,60.74,30.52,34.87c1.57,1.79,3.21,3.54,4.71,5.39.13.16.58-.1.67,0,.45.73.22,2.45.11,3.52a25.81,25.81,0,0,1-1.51,6.25,38.32,38.32,0,0,1-7.85,12.2,78.34,78.34,0,0,1-13.45,11.33l.89-.6c-1.14.78-2.31,1.53-3.47,2.28-.36.23-2.14,1.43-.53.35q20.21-12.36,41-23.77c-.88.5-.89.5,0,0,1.31-.67-2.08,1.09-2.86,1.48q-2.17,1.13-4.4,2.19l1-.47c-41.35,19.82-87.6,29.84-132.44,38.09-65.12,12-131.24,18.57-197.31,22.37q-65.42,3.76-131,3.68c-1.54,0-7.2,3.93-7.71,4.22q-9.24,5.22-18.4,10.56c-6.12,3.55-12.23,7.09-18.31,10.71C844.41,919.92,840.24,923.54,838.54,923.54Z" transform="translate(-300.5 -164.46)"/>
    </g>
  </g>
  <g>
    <g>
      <path d="M2357.6,1156c0,20,0,40,2.4,60h-23.2c2.4-20,2.4-40,2.4-60V912.8H1928.8V1156c0,20,0,40,2.4,60H1908c2.4-20,2.4-40,2.4-60V680c0-20,0-40-2.4-60h23.2c-2.4,20-2.4,40-2.4,60V896h410.4V680c0-20,0-40-2.4-60H2360c-2.4,20-2.4,40-2.4,60Z" transform="translate(-300.5 -164.46)"/>
      <path d="M2327.6,1156c0,20,.09,40.07,2.4,60l30-.3h-23.2l30,.3c2.73-23.51,2.4-47.2,2.4-70.84V912.8c0-.35-29.79-.3-30-.3H1928.8c-1.71,0-30,0-30,.3v227.78c0,25.16-.51,50.39,2.4,75.42l30-.3H1908l30,.3c3.69-31.76,2.4-64.29,2.4-96.28V727c0-23.39.29-46.81-.14-70.2-.22-12.29-.84-24.56-2.26-36.77l-30,.3h23.2l-30-.3c-4.41,38-2.4,77.43-2.4,115.7V896c0,.35,29.79.3,30,.3h410.4c1.71,0,30,.05,30-.3V692.24c0-24.1.39-48.26-2.4-72.24l-30,.3H2360l-30-.3c-3.57,30.71-2.4,62-2.4,93v435.28c0,1.91-.61,5,0,6.85a3.31,3.31,0,0,1,0,.89c0,.44,60,.46,60,0V723c0-22.7-.3-45.45.18-68.14.25-11.65.88-23.27,2.22-34.84,0,.11-29.78-.3-30-.3h-23.2c-1.72,0-30,.47-30,.3,4.42,38,2.4,77.43,2.4,115.7V896l30-.3H1928.8l30,.3V692.24c0-24.1-.38-48.26,2.4-72.24,0,.11-29.78-.3-30-.3H1908c-1.72,0-30,.47-30,.3,3.69,31.76,2.4,64.29,2.4,96.28V1109c0,23.38.29,46.81-.14,70.2-.22,12.29-.84,24.56-2.26,36.77,0-.11,29.78.3,30,.3h23.2c1.72,0,30-.47,30-.3-2.73-23.51-2.4-47.2-2.4-70.84V912.8l-30,.3h410.4l-30-.3v227.78c0,25.16.51,50.39-2.4,75.42,0-.11,29.78.3,30,.3H2360c1.73,0,30-.47,30-.3-2.31-19.93-2.4-40-2.4-60C2387.6,1155.56,2327.6,1155.54,2327.6,1156Z" transform="translate(-300.5 -164.46)"/>
    </g>
    <g>
      <path d="M2920.8,1156a642.91,642.91,0,0,0,25.6,60h-25.6c-4-20-12-40-19.2-60l-66.4-177.6h-256L2512.8,1156c-7.2,20-14.4,40-19.2,60H2468a642.91,642.91,0,0,0,25.6-60L2672,680c7.2-20,16-40,20.8-60h28.8c4.8,20,13.6,40,20.8,60ZM2828,961.6,2707.2,639.2,2585.6,961.6Z" transform="translate(-300.5 -164.46)"/>
      <g>
        <path d="M2890.8,1156c7.42,20.46,16.2,40.38,25.6,60l30-.3h-25.6l30,.3c-4.61-22.37-13.14-43.8-21.12-65.14l-14.07-37.62-40.36-108L2865.2,978.4c-.15-.39-9.95-.23-8.79-.21q-10.6-.11-21.21-.09h-256c-7.07,0-14.14,0-21.21.09-1,0-8.57-.39-8.79.21l-26.77,71.6L2486,1147.37c-8.42,22.54-16.72,45.23-22.42,68.63l30-.3H2468l30,.3c14.93-31.19,26.87-63.38,39-95.69L2581.32,1002l55.92-149.2,47-125.41c8.87-23.68,17.69-47.37,26.66-71,4.53-11.93,8.84-24,11.89-36.36l-30,.3h28.8l-30-.3c5.46,22.2,14.58,43.39,22.59,64.77l10.53,28.1,41.47,110.65,53.36,142.38,47.52,126.8,15.81,42.18,5,13.29c.76,2,1.31,5.21,2.61,7a3.64,3.64,0,0,1,.33.87c.14.39,9.95.22,8.79.21,7.07.08,14.14.09,21.21.09s14.14,0,21.21-.09c.94,0,8.69-.48,8.79-.21l-19.21-51.25L2886,983.22l-53.59-143L2788.53,723q-12.84-34.26-25.73-68.5A303.69,303.69,0,0,1,2751.6,620c-.32-1.3-29.48-.3-30-.3h-28.8c-7.07,0-14.14,0-21.21.09-1,0-8.68-.26-8.79.21-5.52,22.43-14.74,43.82-22.83,65.41l-11.55,30.81L2583.94,834.9,2528,984.12l-46.89,125.1c-8.93,23.83-17.35,48-27.18,71.49-5,11.91-10.38,23.64-15.95,35.29.06-.13,10.08.22,8.78.21q10.62.11,21.22.09h25.6c7.07,0,14.14,0,21.21-.09,1,0,8.68.25,8.79-.21,8.62-35.37,22.75-69.5,35.49-103.57l40.06-107.15,10-26.88-30,.3h256l-30-.3L2832,1050l36.56,97.8c8.37,22.37,17.44,44.76,22.27,68.2.24,1.15,29.56.3,30,.3h25.6c7.07,0,14.14,0,21.21-.09,1,0,8.61-.58,8.79-.21-9.4-19.62-18.18-39.54-25.6-60-.14-.38-10-.22-8.79-.21-7.07-.08-14.14-.09-21.21-.09s-14.14,0-21.21.09C2898.66,1155.8,2890.89,1156.25,2890.8,1156Z" transform="translate(-300.5 -164.46)"/>
        <path d="M2858,961.6l-12-32.11-28.88-77.08-34.76-92.77L2752.11,679l-10-26.6-3.08-8.22c-.45-1.22-.81-3.4-1.65-4.42a1.9,1.9,0,0,1-.21-.55c-.15-.39-9.95-.23-8.79-.21q-10.6-.12-21.21-.09c-7.07,0-14.14,0-21.21.09-1,0-8.56-.39-8.79.21l-12.11,32.1L2636,748.39l-35,92.77-30.42,80.65-10,26.59-3.11,8.23c-.39,1-1.77,3.27-1.66,4.41,0,.15-.16.41-.21.56,0-.07,10.13.22,8.79.21q10.61.11,21.21.09H2828c7.07,0,14.14,0,21.21-.09,2,0,6.48.45,8.79-.21-2.13.61-6.85-.19-8.79-.21q-10.61-.1-21.21-.09H2585.6l30,.3,12.11-32.11,29.07-77.08,35-92.77L2722.19,679c4.93-13.06,10.24-26,14.8-39.24.06-.18.14-.37.21-.55h-60l12,32.1,28.88,77.09,34.76,92.77,30.22,80.65,10,26.59,3.09,8.23c.45,1.22.81,3.4,1.65,4.41a2.09,2.09,0,0,1,.21.56c.14.39,9.95.22,8.79.21,7.07.08,14.14.09,21.21.09s14.14,0,21.21-.09C2850.15,961.8,2857.9,961.33,2858,961.6Z" transform="translate(-300.5 -164.46)"/>
      </g>
    </g>
    <g>
      <path d="M3213.59,976v180c0,20,0,40,2.4,60h-23.2c2.4-20,2.4-40,2.4-60V974.4L3017.59,680c-12-20-24-40-39.2-60h27.2c9.6,20,21.6,40,33.6,60l165.6,276L3360,680c11.2-20,22.4-40,32-60h27.2c-14.4,20-26.4,40-37.6,60Z" transform="translate(-300.5 -164.46)"/>
      <path d="M3183.59,976v171.54c0,22.84-.24,45.73,2.4,68.46l30-.3h-23.2l30,.3c3-25.83,2.4-51.91,2.4-77.88V992c0-6.81,1.76-14.65-1.85-20.62l-56.78-94.12-82.67-137.05c-17.51-29-34.59-58.37-52.69-87-7.18-11.35-14.72-22.45-22.81-33.16l-30,.3h27.2l-30-.3c12.36,25.57,27.43,49.71,42,74l37.27,62.12,50.67,84.45,46.09,76.82,15.42,25.7,4.8,8c.76,1.26,1.51,3.32,2.59,4.31a2.51,2.51,0,0,1,.33.55c.3.5,9.71.22,8.78.21,7.08.08,14.15.09,21.22.09s14.14,0,21.21-.09c1.18,0,8.36.55,8.79-.21l58.89-104.74,85.4-151.86c14.74-26.22,29.84-52.3,42.91-79.4l-30,.3h27.2l-30-.3c-17.18,24-31.67,49.54-46.2,75.14l-37.91,66.8-51.49,90.72-46.56,82-15.54,27.37-5,8.77c-.64,1.13-2.45,3.23-2.58,4.55,0,.17-.25.45-.34.61.1-.18,10,.22,8.78.21,7.07.08,14.15.09,21.22.09s14.14,0,21.21-.09c1.18,0,8.35.56,8.79-.21l19-33.5,44.7-78.76,51.88-91.41,40.55-71.44c11.25-19.82,22.25-39.83,34.58-59q7.16-11.13,14.88-21.89c-.18.25-9.91-.23-8.79-.21q-10.61-.1-21.21-.09H3392c-7.07,0-14.14,0-21.21.09-1.11,0-8.46-.49-8.79.21-22.39,46.42-49.47,91.06-74.73,136L3196.6,917.2,3174.79,956h60l-18.7-31.16-44-73.29L3121,766.42l-40.15-66.92c-11.56-19.26-23.38-38.4-34.21-58.07q-5.82-10.57-11.09-21.43c-.22-.45-9.85-.22-8.79-.21q-10.61-.1-21.21-.09h-27.2c-7.07,0-14.15,0-21.22.09-1.18,0-8.33.81-8.78.21,25.22,33.37,45.72,70.8,67.34,106.64l80.64,133.68,63.86,105.87c1.45,2.4,3.9,5.22,4.78,7.91.68,2.09.18,5,.18,7.2v63.6c0,43.47.47,87-.08,130.45a394.18,394.18,0,0,1-2.32,40.65c0-.11,29.78.3,30,.3H3216c1.72,0,30-.47,30-.3-4-34.19-2.4-69.32-2.4-103.74V976C3243.59,975.56,3183.59,975.54,3183.59,976Z" transform="translate(-300.5 -164.46)"/>
    </g>
    <g>
      <path d="M3506.38,1102.4c16,25.6,29.6,41.6,40.8,52,36.8,32.8,88.8,51.2,145.6,51.2,100,0,163.2-55.2,163.2-141.6,0-73.6-43.2-112.8-160-145.6-124-34.4-171.2-78.4-171.2-157.6,0-88.8,67.2-147.2,172-147.2,34.4,0,66.4,7.2,95.2,21.6,24,12,45.6,28.8,67.2,48.8l-16,16c-17.6-21.6-37.6-38.4-60.8-50.4-25.6-13.6-54.4-20-86.4-20-94.4,0-153.6,50.4-153.6,131.2,0,72.8,36.8,105.6,164.8,143.2,121.6,36,166.4,78.4,166.4,160,0,95.2-72.8,158.4-182.4,158.4-62.4,0-116-19.2-156-55.2-16.8-14.4-31.2-32-44-52Z" transform="translate(-300.5 -164.46)"/>
      <path d="M3476.38,1102.4c12.12,19.3,25.64,39,43,54,18.66,16.07,40.58,28.11,63.8,36.19,25.29,8.81,51.79,12.63,78.49,13.14,25.8.5,51.9,1.14,77.67-.62a227.44,227.44,0,0,0,31.94-4.33c37-7.88,71.86-27,93-59.13,19.78-30.12,25.73-68.91,19.52-104.13-14.32-81.25-107.2-103.61-174.2-123.82-39.1-11.8-80-26.64-111.54-53.55A120.91,120.91,0,0,1,3556,781.45c-4.34-36.05,2.63-74,23.88-103.87,22.56-31.77,58.3-50.8,95.83-58.83a236.78,236.78,0,0,1,31.82-4.47l-1.08.08c3.92-.27,7.84-.44,11.77-.58a98.84,98.84,0,0,1-43,0c1.22,0,2.43.08,3.64.14q3.61.17,7.22.44l-1.07-.08a211.66,211.66,0,0,1,102.94,36.23c7.56,5.14,14.84,10.69,21.9,16.5q5.64,4.63,11.09,9.48c1.45,1.28,8.22,6.07,8.12,7.66-.05.73-2.67,2.67-3.18,3.18l-5.37,5.36-7.29,7.3h60c-16.35-19.92-35.84-37.07-58.64-49.26s-47.75-18.87-73.61-20.66c-26.46-1.84-53.4-1.19-79.89-.49a239.86,239.86,0,0,0-32.33,2.88c-19.08,3.09-37.86,8.9-54.75,18.4A119,119,0,0,0,3515,732.4c-5.44,28-4,60.76,9.78,86.25,14.23,26.27,40.87,42.66,67.2,54.89,43.4,20.15,90.39,29.9,134.82,47.2,32.67,12.72,66.32,29.34,89.12,56.84,19.48,23.5,27.15,53,27.61,83.1.57,36.8-10.1,73.32-33.92,101.79-24.33,29.08-59.34,46.77-96,54.62a243.72,243.72,0,0,1-31.8,4.54l1.07-.08c-4.34.32-8.93.52-13.12.66-6.26.22,60.42.82,37.57-.16-3.06-.13-6.12-.32-9.19-.54l1.08.08c-33.75-2.65-67-11.34-96.74-27.81-30.06-16.66-55.4-40.89-74.95-69-1.34-1.92-6.63-7.9-6.06-9.81.35-1.19,3.75-3.16,4.68-3.94l10.21-8.6c-.52.44-9.41-.22-8.79-.21-7.07-.08-14.14-.09-21.21-.09s-14.14,0-21.22.09c-1.73,0-7.56-.82-8.78.21l-5.35,4.5c-2.75,2.31-6.46,4.57-8.73,7.35-1.2,1.47-1.45,0-.16,2.44a90.44,90.44,0,0,0,5.91,8.78c4.29,6.13,8.82,12.1,13.63,17.83a218.46,218.46,0,0,0,59.52,49.76,226.38,226.38,0,0,0,72.13,25.31,285,285,0,0,0,40.39,4c27,.81,54.27,1.18,81.23-.28,42.62-2.3,85.81-14.77,118.53-43.18,30.17-26.2,47.18-63.63,49.73-103.28,2.15-33.43-4-68.11-24.89-95.08-23.91-30.8-61.34-48.52-97-61.9-46.86-17.59-96.43-27.58-141.09-50.88-26.88-14-51.5-33.59-61.59-63.17-4.79-14.05-6.3-29-6.28-43.79,0-19.9,3.68-39.87,12.24-57.91,17.09-36,51.68-58.38,89.64-67.53a211.82,211.82,0,0,1,32.55-5l-1.07.08c3.64-.27,7.28-.46,10.93-.59,15.82-.58-59.43-.84-40.65,0,2.35.11,4.7.23,7.06.39l-1.08-.08c25.78,1.93,50.48,8.66,73.26,21,22.5,12.15,41.75,29.18,57.92,48.88.49.59,9.44.22,8.79.21,7.07.08,14.14.09,21.21.09s14.14,0,21.21-.09c1.58,0,7.8.78,8.79-.21l12.66-12.66c.68-.68,2.38-1.82,2.73-2.73.52-1.36,0-1.17-1.46-2.52-5.64-5.16-11.39-10.21-17.3-15.07-21.06-17.33-44.22-32.09-70-41.27-33.52-11.93-67.8-12.47-103-12.45-29.47,0-58.85-.19-87.62,7-36.59,9.09-70.81,29.1-91.86,61-19.83,30.1-25.93,67.76-21,103.13,4.31,30.69,19.5,57.26,43.3,77,32.18,26.75,73.58,41.44,113.16,53.17,66.13,19.61,156.59,42.85,170.92,122.4,6.3,35,.54,73.58-18.84,103.66-20.63,32-55,51.46-91.61,59.64a222.85,222.85,0,0,1-31.38,4.58l1.07-.08c-3.86.28-7.84.46-11.63.59-8.77.32,59,.72,39.24-.13q-3.81-.16-7.61-.44l1.07.08c-52-4-105.08-23.9-139.84-64.06-10.37-12-19.4-25.06-27.82-38.46-.33-.52-9.69-.22-8.79-.21-7.07-.08-14.14-.09-21.21-.09s-14.14,0-21.22.09C3484.08,1102.2,3476.7,1102.9,3476.38,1102.4Z" transform="translate(-300.5 -164.46)"/>
    </g>
    <g>
      <path d="M4358.38,620c20,0,40,0,60-2.4v21.6c-20-2.4-40-2.4-60-2.4H4195.17V1156c0,20,0,40,2.41,60h-23.2c2.4-20,2.4-40,2.4-60V636.8H4013.57c-20,0-40,0-60,2.4V617.6c20,2.4,40,2.4,60,2.4Z" transform="translate(-300.5 -164.46)"/>
      <path d="M4358.38,620.3c29.94,0,60.19.76,90-2.7h-60v21.6h60c-30.64-3.56-61.74-2.7-92.52-2.7H4195.17c-1.7,0-30,0-30,.3v471c0,23.47-.26,47,.13,70.44.21,12.61.82,25.2,2.28,37.74l30-.3h-23.2l30,.3c3.71-32,2.4-64.71,2.4-96.9V645.28c0-2.07.68-5.54,0-7.52a3.43,3.43,0,0,1,0-1c0-.35-29.8-.3-30-.3H4018.33c-31.53,0-63.38-1-94.76,2.7h60V617.6h-60c35.74,4.15,72,2.7,107.9,2.7h326.91c7.07,0,14.14,0,21.21-.09,2,0,6.48.44,8.79-.21-2.13.6-6.85-.2-8.79-.21q-10.6-.1-21.21-.09H4009.7c8,0,3.94,0,2.17,0l5.5,0c2.07,0-2.44-.05-3-.06-1.58,0-3.15-.09-4.72-.15q-6.78-.24-13.55-.72l1.07.08q-6.78-.51-13.55-1.28c-5.66-.66-60-.3-60,0v21.6c0,.33,54.82.6,60,0,4.51-.53,9-1,13.55-1.29l-1.07.08q5.8-.4,11.61-.64,3.12-.14,6.23-.21c.73,0,5.46-.08,3.48-.07-1.44,0-8,0-3.56,0,.17,0-6.56,0-3.14,0h166.11l-30-.3v471c0,23.47.26,47-.13,70.44-.21,12.61-.82,25.2-2.27,37.74,0-.11,29.77.3,30,.3h23.2c1.72,0,30-.47,30-.3-3.72-32-2.41-64.71-2.41-96.9V705.38c0-22.45,1.05-45.19,0-67.62,0-.32,0-.64,0-1l-30,.3h167.08c-1.43,0-6.28,0-2.17,0l-4.4,0c-.14,0-3.54-.07-1,0,2.22.06,4.44.09,6.65.17,4.85.17,9.68.42,14.52.75l-1.07-.08c4.52.34,9,.76,13.55,1.29,5.66.66,60,.29,60,0V617.6c0-.34-54.82-.6-60,0q-6.77.78-13.55,1.28l1.07-.08c-5.94.41-11.89.71-17.84.86-1.11,0-2.22,0-3.33.06-2.56.07,1.6,0,2.05,0,1.7,0,4.89,0,1.36,0,9,0,1.95,0,.24,0-7.07,0-14.15,0-21.22.09-2,0-6.48-.45-8.78.21,2.12-.61,6.85.19,8.78.21Q4347.76,620.31,4358.38,620.3Z" transform="translate(-300.5 -164.46)"/>
    </g>
    <g>
      <path d="M4911.17,1156a642.91,642.91,0,0,0,25.6,60h-25.6c-4-20-12-40-19.2-60l-66.4-177.6h-256l-66.4,177.6c-7.2,20-14.4,40-19.2,60h-25.6a642.91,642.91,0,0,0,25.6-60l178.4-476c7.2-20,16-40,20.8-60H4712c4.8,20,13.6,40,20.8,60Zm-92.8-194.4-120.8-322.4L4576,961.6Z" transform="translate(-300.5 -164.46)"/>
      <g>
        <path d="M4881.17,1156c7.41,20.46,16.2,40.38,25.6,60l30-.3h-25.6l30,.3c-4.61-22.37-13.14-43.8-21.12-65.14L4906,1113.24l-40.36-108-10.05-26.88c-.15-.39-9.95-.23-8.79-.21q-10.6-.11-21.21-.09h-256c-7.07,0-14.15,0-21.22.09-1,0-8.56-.39-8.78.21L4512.8,1050l-36.41,97.37c-8.42,22.54-16.72,45.23-22.42,68.63l30-.3h-25.6l30,.3c14.93-31.19,26.86-63.38,39-95.69L4571.69,1002l55.92-149.2,47-125.41c8.87-23.68,17.69-47.37,26.66-71,4.53-11.93,8.84-24,11.89-36.36l-30,.3H4712l-30-.3c5.46,22.2,14.58,43.39,22.59,64.77l10.53,28.1,41.47,110.65,53.36,142.38,47.52,126.8,15.81,42.18,5,13.29c.76,2,1.31,5.21,2.61,7a3.64,3.64,0,0,1,.33.87c.14.39,9.95.22,8.79.21,7.07.08,14.14.09,21.21.09s14.14,0,21.21-.09c.94,0,8.69-.48,8.79-.21L4922,1104.75l-45.55-121.53-53.59-143L4778.9,723q-12.84-34.26-25.73-68.5A303.69,303.69,0,0,1,4742,620c-.32-1.3-29.48-.3-30-.3h-28.8c-7.07,0-14.15,0-21.22.09-.94,0-8.67-.26-8.78.21-5.52,22.43-14.74,43.82-22.83,65.41l-11.55,30.81L4574.31,834.9l-55.93,149.22-46.88,125.1c-8.93,23.83-17.35,48-27.18,71.49-5,11.91-10.38,23.64-15.95,35.29.06-.13,10.08.22,8.78.21q10.61.11,21.22.09H4484c7.07,0,14.14,0,21.21-.09.95,0,8.68.25,8.79-.21,8.62-35.37,22.75-69.5,35.49-103.57l40.06-107.15,10-26.88-30,.3h256l-30-.3,26.77,71.6,36.56,97.8c8.36,22.37,17.44,44.76,22.27,68.2.24,1.15,29.56.3,30,.3h25.6c7.07,0,14.14,0,21.21-.09,1,0,8.61-.58,8.79-.21-9.4-19.62-18.19-39.54-25.6-60-.14-.38-10-.22-8.79-.21-7.07-.08-14.14-.09-21.21-.09s-14.14,0-21.21.09C4889,1155.8,4881.26,1156.25,4881.17,1156Z" transform="translate(-300.5 -164.46)"/>
        <path d="M4848.37,961.6l-12-32.11-28.88-77.08-34.76-92.77L4742.48,679l-10-26.6-3.08-8.22c-.46-1.22-.81-3.4-1.65-4.42a1.9,1.9,0,0,1-.21-.55c-.15-.39-9.95-.23-8.79-.21q-10.6-.12-21.21-.09c-7.07,0-14.14,0-21.21.09-1,0-8.57-.39-8.79.21l-12.11,32.1-29.08,77.09-35,92.77L4561,921.81l-10,26.59-3.1,8.23c-.39,1-1.77,3.27-1.66,4.41,0,.15-.16.41-.21.56,0-.07,10.13.22,8.78.21q10.62.11,21.22.09h242.4c7.07,0,14.14,0,21.21-.09,2,0,6.48.45,8.79-.21-2.13.61-6.85-.19-8.79-.21q-10.6-.1-21.21-.09H4576l30,.3,12.11-32.11,29.07-77.08,35-92.77L4712.56,679c4.93-13.06,10.24-26,14.8-39.24.06-.18.14-.37.21-.55h-60l12,32.1,28.88,77.09,34.76,92.77,30.22,80.65,10,26.59,3.09,8.23c.45,1.22.81,3.4,1.65,4.41a2.09,2.09,0,0,1,.21.56c.14.39,9.95.22,8.78.21,7.08.08,14.15.09,21.22.09s14.14,0,21.21-.09C4840.52,961.8,4848.27,961.33,4848.37,961.6Z" transform="translate(-300.5 -164.46)"/>
      </g>
    </g>
    <g>
      <path d="M5515.16,1081.6a390.9,390.9,0,0,1-38.4,55.2c-50.4,59.2-110.4,87.2-191.2,87.2-169.6,0-272.8-117.6-272.8-309.6,0-180.8,104-302.4,259.2-302.4,77.6,0,136.8,20.8,181.6,64.8,21.6,20.8,39.2,46.4,56,76.8l-20.8,12c-12.8-31.2-28.8-56.8-49.6-77.6-40-40-96-59.2-168-59.2-144.8,0-240,111.2-240,285.6,0,184,95.2,292.8,254.4,292.8,73.6,0,128-24,177.6-80,12-14.4,23.2-32,36.8-56Z" transform="translate(-300.5 -164.46)"/>
      <path d="M5485.16,1081.6c-34.49,59.44-83.67,111.49-151.05,131.71a259.43,259.43,0,0,1-55.08,9.86l1.07-.08c-3.34.23-6.68.43-10,.56-1.35.06-2.7.08-4.05.14l36.79,0c2.5,0,2.76,0,.76,0-3.22-.16-10.37-.45-15-.79l1.07.08c-53.18-4.06-105.24-21.4-146.83-55.48-41.43-34-69-81.5-84-132.48-18-61-20.91-128.15-10.5-190.76,9.44-56.76,32-112.25,71.22-155.05,36.64-40,86.08-65.73,139.6-74,7-1.08,14-1.87,21-2.42l-1.07.08c2.53-.18,5.06-.35,7.6-.47,1.27-.06,2.55-.12,3.83-.16,10.69-.38-17.69-.06-17.74-.06q-30.66-.18-18.16,0l1.23,0c1.68.05,3.36.12,5,.19q5.39.24,10.75.63l-1.07-.08c40.21,3,80.14,12.88,114.82,34,36.69,22.34,64.22,55.7,85.95,92.28q2.55,4.31,5,8.65c.63,1.11,3.36,4.77,3,5.74-.46,1.2-5.47,3.15-6.5,3.75l-14.12,8.15h60c-11.12-26.91-25.74-52.46-45.83-73.71a186.13,186.13,0,0,0-59.33-41.95c-24.37-10.93-50.73-16.87-77.24-19.48-20.34-2-40.8-1.93-61.22-2-19.62,0-39.37-.38-58.94,1.44-41,3.8-80.79,17.86-113.83,42.65s-58,59.26-74.26,97.22c-19.23,45-26.79,94.34-26.95,143.06-.16,47.87,6,96.48,23.1,141.42,14.26,37.44,36.51,71.92,67.13,98s67.87,42.37,107.09,49.76c31.37,5.92,63.25,5.48,95.05,5.41,31.31-.07,62.36-.73,92.67-9.4,48.88-14,91.89-47.17,120.5-88.92,8.39-12.25,15.93-25.07,23.26-38h-60l15.2,10.4c1.09.75,8.54.21,8.78.21,7.08.08,14.15.09,21.22.09s14.14,0,21.21-.09c1.73,0,7.56-1,8.79-.21l-15.2-10.4c-1.1-.75-8.54-.21-8.79-.21-7.07-.08-14.14-.09-21.21-.09s-14.14,0-21.22.09c-1.17,0-8.35-.56-8.78.21-8.89,15.64-18.06,31.2-28.74,45.7a231.68,231.68,0,0,1-33.14,35.51c-22.65,20-48.93,35.58-77.89,44.5a238.07,238.07,0,0,1-51.46,9.44l1.07-.08c-3,.22-6.07.41-9.11.55-23.35,1,46.64.54,34.49.17-4.16-.12-10.16-.4-15-.75l1.07.08c-49.76-3.77-98.54-19.84-137.35-51.91s-64.23-77.25-78-125.33c-16.74-58.62-19.19-123-9.44-183.07,8.67-53.36,29.24-105.89,66-146.23,33.86-37.12,79.71-60.58,129.25-68.08,6.43-1,12.89-1.68,19.37-2.17l-1.07.08q3.71-.27,7.44-.45l3.12-.12,1.89-.06q-10.2.3-20.41,0-30.06-.07-19.51,0l1.7,0c1.69.05,3.38.12,5.07.19q5,.22,10,.59l-1.07-.08c32.06,2.43,64,9.31,92.92,23.75a189,189,0,0,1,68.66,58.83c11.86,16.46,21.21,34.54,28.95,53.26.17.41,9.91.22,8.78.21,7.07.08,14.15.09,21.22.09s14.14,0,21.21-.09c2.13,0,7,.81,8.79-.21l18.3-10.56c.52-.3,2.18-.87,2.45-1.42.52-1-5.11-9.15-5.84-10.41-4.3-7.39-8.78-14.67-13.52-21.79-16.46-24.7-36.33-47.28-60.4-64.83a220.82,220.82,0,0,0-72.68-34.3c-34.51-9.34-69.86-10.46-105.4-10.58-34.14-.11-68.18-.59-101.6,7.23a238.71,238.71,0,0,0-62.64,24.26c-39.42,22.2-71.19,55.88-93.14,95.26-25,44.87-37.34,95.92-40.62,146.93-3.39,52.9,1.42,107.5,17.76,158.09,13.69,42.34,36.25,82,68.66,112.82,31.56,30,71.17,50,113.46,59.84,25.05,5.8,50.53,7.75,76.18,8,41.11.47,83.25,2.08,123.51-7.9,54.7-13.55,99.92-47.87,133.75-92.27a406.58,406.58,0,0,0,28.17-42.41c-.11.18-10-.23-8.79-.21-7.07-.08-14.14-.09-21.21-.09s-14.14,0-21.22.09C5492.76,1081.4,5485.61,1080.82,5485.16,1081.6Z" transform="translate(-300.5 -164.46)"/>
    </g>
    <g>
      <path d="M5670.35,620c-2.4,20-2.4,40-2.4,60v476c0,20,0,40,2.4,60h-23.2c2.4-20,2.4-40,2.4-60V680c0-20,0-40-2.4-60Zm292.8,536c21.6,20,44,40.8,68.8,60h-36.8c-16.8-20-37.6-40-59.2-60l-252.8-237.6L5924,680c20-20,40-40.8,55.2-60h35.2c-24,20-45.6,40-65.6,60L5708,917.6Z" transform="translate(-300.5 -164.46)"/>
      <g>
        <path d="M5640.35,620c-3.69,31.76-2.4,64.29-2.4,96.28V1109c0,23.38-.29,46.81.14,70.2.22,12.29.84,24.56,2.26,36.77l30-.3h-23.2l30,.3c3.69-31.76,2.4-64.29,2.4-96.28V727c0-23.39.28-46.81-.14-70.2-.22-12.29-.84-24.56-2.26-36.77l-30,.3h23.2c7.07,0,14.14,0,21.21-.09,2,0,6.48.44,8.79-.21-2.13.6-6.85-.2-8.79-.21q-10.61-.1-21.21-.09h-23.2c-1.73,0-30,.47-30,.3,3.69,31.76,2.4,64.29,2.4,96.28V1109c0,23.38.28,46.81-.14,70.2-.22,12.29-.84,24.56-2.26,36.77,0-.11,29.78.3,30,.3h23.2c1.72,0,30-.47,30-.3-3.69-31.76-2.4-64.29-2.4-96.28V727c0-23.39-.29-46.81.14-70.2.22-12.29.84-24.56,2.26-36.77,0,.15-27.75-.3-30-.3S5640.46,619,5640.35,620Z" transform="translate(-300.5 -164.46)"/>
        <path d="M5933.15,1156c22.34,20.68,44.74,41.31,68.8,60l30-.3h-36.8l30,.3c-21.27-25.19-45.73-47.34-69.71-69.88l-54.92-51.62-76.94-72.31L5752,954.88l-24.79-23.3c-4.14-3.89-9.42-7.68-12.94-12.16-.41-.52-1-.69-.94-1.18.07-.74,2.6-2.56,3.11-3.07l16.46-16.29,61.58-61L5871,762.17l62.23-61.62c14.91-14.76,29.88-29.44,44.32-44.64,11-11.57,21.7-23.42,31.64-35.91l-30,.3h35.2l-30-.3c-26,21.69-50.38,45-74.45,68.73L5860,738l-72.27,71.32L5719.1,877l-39,38.44c-2.05,2-2.65,1.73-.57,3.67l13.29,12.42,56.39,52.68,74.87,69.94,69.16,64.6,38.05,35.55,1.82,1.7c.72.68,9.09.22,8.79.21,7.07.08,14.14.09,21.21.09s14.14,0,21.21-.09c1.44,0,8-1,8.79-.21l-26.87-25.1-63.59-59.41-76-71-63.24-59.07-18.94-17.7c-.89-.84-6.51-4.83-6.51-6.12,0-.46,1.95-1.92,2.24-2.22l5.73-5.65L5766,890l63.83-63,73.42-72.45,58-57.18c15-14.83,29.92-29.8,45.41-44.15Q6025,636.1,6044.35,620c-.53.44-9.4-.22-8.79-.21q-10.61-.1-21.21-.09h-35.2c-7.85,0-15.71,0-23.56.12-1.34,0-4-.33-5.37.1s-1.63.79-2.64,2.05c-16.76,20.84-35.55,40.08-54.51,58.9q-21.57,21.4-43.19,42.75l-80.23,79.44-78.48,77.69-26.6,26.34-7.79,7.71c-.54.54-3.45,2.66-3.5,3.46-.09,1.54,6.29,6.17,7.45,7.27l23.68,22.25,77,72.37,84.85,79.75,54.7,51.41c9.67,9.09,19.44,18.09,28.95,27.36,6.72,6.53,13.33,13.18,19.76,20q4.64,4.93,9.15,10c1.36,1.54,2.72,3.1,4.07,4.66,2.3,2.69,2.8,2.75,6.36,2.82,14.27.28,28.55.15,42.82.15H6032c7.07,0,14.14,0,21.21-.09,1.6,0,7.74-1,8.79-.21-24.06-18.69-46.46-39.32-68.8-60-.73-.68-9.08-.22-8.79-.21-7.07-.08-14.14-.09-21.21-.09s-14.14,0-21.21.09C5940.5,1155.8,5934,1156.76,5933.15,1156Z" transform="translate(-300.5 -164.46)"/>
      </g>
    </g>
    <g>
      <path d="M6135.14,1102.4c16,25.6,29.6,41.6,40.8,52,36.8,32.8,88.8,51.2,145.6,51.2,100,0,163.2-55.2,163.2-141.6,0-73.6-43.2-112.8-160-145.6-124-34.4-171.2-78.4-171.2-157.6,0-88.8,67.2-147.2,172-147.2,34.4,0,66.4,7.2,95.2,21.6,24,12,45.6,28.8,67.2,48.8l-16,16c-17.6-21.6-37.6-38.4-60.8-50.4-25.6-13.6-54.4-20-86.4-20-94.4,0-153.6,50.4-153.6,131.2,0,72.8,36.8,105.6,164.8,143.2,121.6,36,166.4,78.4,166.4,160,0,95.2-72.8,158.4-182.4,158.4-62.4,0-116-19.2-156-55.2-16.8-14.4-31.2-32-44-52Z" transform="translate(-300.5 -164.46)"/>
      <path d="M6105.14,1102.4c12.12,19.3,25.64,39,43,54,18.65,16.07,40.58,28.11,63.8,36.19,25.29,8.81,51.79,12.63,78.49,13.14,25.8.5,51.9,1.14,77.67-.62a227.44,227.44,0,0,0,31.94-4.33c36.95-7.88,71.86-27,93-59.13,19.78-30.12,25.73-68.91,19.52-104.13-14.32-81.25-107.2-103.61-174.2-123.82-39.1-11.8-80-26.64-111.54-53.55a120.91,120.91,0,0,1-42.11-78.67c-4.34-36.05,2.63-74,23.88-103.87,22.56-31.77,58.3-50.8,95.83-58.83a236.78,236.78,0,0,1,31.82-4.47l-1.08.08c3.92-.27,7.84-.44,11.77-.58a98.84,98.84,0,0,1-43,0c1.22,0,2.43.08,3.64.14q3.61.17,7.22.44l-1.07-.08a211.66,211.66,0,0,1,102.94,36.23c7.56,5.14,14.84,10.69,21.9,16.5q5.64,4.63,11.09,9.48c1.45,1.28,8.22,6.07,8.12,7.66-.05.73-2.67,2.67-3.18,3.18l-5.37,5.36-7.29,7.3h60c-16.35-19.92-35.84-37.07-58.64-49.26s-47.75-18.87-73.61-20.66c-26.46-1.84-53.4-1.19-79.89-.49a239.86,239.86,0,0,0-32.33,2.88c-19.08,3.09-37.86,8.9-54.75,18.4a119,119,0,0,0-58.94,81.53c-5.44,28-4,60.76,9.78,86.25,14.23,26.27,40.87,42.66,67.2,54.89,43.4,20.15,90.39,29.9,134.82,47.2,32.67,12.72,66.32,29.34,89.12,56.84,19.48,23.5,27.15,53,27.61,83.1.57,36.8-10.1,73.32-33.92,101.79-24.33,29.08-59.34,46.77-96,54.62a243.72,243.72,0,0,1-31.8,4.54l1.07-.08c-4.34.32-8.93.52-13.12.66-6.26.22,60.42.82,37.57-.16-3.06-.13-6.13-.32-9.19-.54l1.08.08c-33.75-2.65-67-11.34-96.74-27.81-30.06-16.66-55.4-40.89-74.95-69-1.34-1.92-6.63-7.9-6.06-9.81.35-1.19,3.75-3.16,4.68-3.94l10.21-8.6c-.52.44-9.41-.22-8.79-.21-7.07-.08-14.14-.09-21.21-.09s-14.14,0-21.22.09c-1.73,0-7.56-.82-8.78.21l-5.35,4.5c-2.75,2.31-6.46,4.57-8.73,7.35-1.2,1.47-1.45,0-.16,2.44a90.44,90.44,0,0,0,5.91,8.78c4.29,6.13,8.82,12.1,13.63,17.83a218.46,218.46,0,0,0,59.52,49.76,226.38,226.38,0,0,0,72.13,25.31,285,285,0,0,0,40.39,4c27,.81,54.27,1.18,81.23-.28,42.62-2.3,85.81-14.77,118.53-43.18,30.17-26.2,47.18-63.63,49.73-103.28,2.15-33.43-4-68.11-24.89-95.08-23.91-30.8-61.34-48.52-97-61.9-46.86-17.59-96.43-27.58-141.09-50.88-26.88-14-51.5-33.59-61.59-63.17-4.79-14.05-6.3-29-6.28-43.79,0-19.9,3.67-39.87,12.24-57.91,17.09-36,51.68-58.38,89.64-67.53a211.82,211.82,0,0,1,32.55-5l-1.07.08c3.64-.27,7.28-.46,10.93-.59,15.82-.58-59.43-.84-40.65,0,2.35.11,4.7.23,7.06.39l-1.08-.08c25.78,1.93,50.48,8.66,73.26,21,22.5,12.15,41.75,29.18,57.92,48.88.49.59,9.44.22,8.79.21,7.07.08,14.14.09,21.21.09s14.14,0,21.21-.09c1.58,0,7.8.78,8.79-.21l12.66-12.66c.68-.68,2.38-1.82,2.73-2.73.52-1.36,0-1.17-1.46-2.52-5.64-5.16-11.39-10.21-17.3-15.07-21.06-17.33-44.22-32.09-70-41.27-33.52-11.93-67.8-12.47-103-12.45-29.47,0-58.85-.19-87.62,7-36.59,9.09-70.81,29.1-91.86,61-19.84,30.1-25.93,67.76-21,103.13,4.31,30.69,19.5,57.26,43.3,77,32.18,26.75,73.58,41.44,113.16,53.17,66.13,19.61,156.59,42.85,170.92,122.4,6.3,35,.54,73.58-18.84,103.66-20.63,32-55,51.46-91.61,59.64a222.85,222.85,0,0,1-31.38,4.58l1.07-.08c-3.86.28-7.84.46-11.63.59-8.77.32,59,.72,39.24-.13q-3.81-.16-7.61-.44l1.07.08c-52-4-105.08-23.9-139.84-64.06-10.37-12-19.4-25.06-27.82-38.46-.33-.52-9.69-.22-8.79-.21-7.07-.08-14.14-.09-21.21-.09s-14.14,0-21.22.09C6112.84,1102.2,6105.45,1102.9,6105.14,1102.4Z" transform="translate(-300.5 -164.46)"/>
    </g>
  </g>
</svg>
